<svg xmlns="http://www.w3.org/2000/svg" viewBox="0 0 30 30"><path d="M15 .37c-8.28 0-15 6.72-15 15C0 22 4.3 27.62 10.26 29.6c.75.14 1.02-.33 1.02-.72 0-.36-.01-1.3-.02-2.55-4.17.91-5.05-2.01-5.05-2.01-.68-1.73-1.67-2.19-1.67-2.19-1.36-.93.1-.91.1-.91 1.51.11 2.3 1.55 2.3 1.55 1.34 2.29 3.51 1.63 4.37 1.25.14-.97.52-1.63.95-2.01-3.33-.38-6.83-1.67-6.83-7.41 0-1.64.58-2.98 1.54-4.03-.15-.38-.67-1.9.15-3.97 0 0 1.26-.4 4.12 1.54 1.2-.33 2.48-.5 3.76-.5 1.27.01 2.56.17 3.76.5 2.86-1.94 4.12-1.54 4.12-1.54.82 2.07.3 3.59.15 3.97.96 1.05 1.54 2.39 1.54 4.03 0 5.76-3.51 7.03-6.85 7.4.54.46 1.02 1.38 1.02 2.78 0 2.01-.02 3.62-.02 4.11 0 .4.27.87 1.03.72C25.71 27.61 30 22 30 15.37c0-8.28-6.72-15-15-15z" fill-rule="evenodd" clip-rule="evenodd" fill="#fff"/></svg>