<svg viewBox="0 0 92 92" xmlns="http://www.w3.org/2000/svg"><path d="M90.155 41.965L50.036 1.847a5.918 5.918 0 00-8.369 0l-8.331 8.332 10.568 10.568a7.024 7.024 0 017.229 1.684 7.03 7.03 0 011.67 7.275l10.186 10.185a7.026 7.026 0 017.275 1.671 7.04 7.04 0 010 9.957 7.041 7.041 0 01-11.492-7.658l-9.5-9.499v24.996a7.043 7.043 0 011.861 11.292 7.042 7.042 0 11-7.65-11.497V33.925a7.04 7.04 0 01-3.822-9.234l-10.418-10.42-27.51 27.508a5.92 5.92 0 000 8.371l40.121 40.118a5.92 5.92 0 008.369 0l39.932-39.932a5.92 5.92 0 000-8.371" fill="#fff"/></svg>