<svg xmlns="http://www.w3.org/2000/svg" viewBox="0 0 241.7 123.8"><path d="M217.6 95.8l-15.3-26.6h-1.5v26.5h-19.1v-66L200.8 0v61.6c3.8-4.6 16.6-22.3 16.6-22.3H241l-22.4 23.6 23.1 32.9h-24.1zM157 39.5h18.9l-22.2 56.1c-6.6 16.9-16.1 28.3-30.2 28.3-5.4 0-10-1.4-12.4-2.8l7.6-11.7c1.1.1 2.3.2 3.5.2 6.5 0 11.4-6.3 14.6-13.8l-23.2-56.3H135l8.4 25.1c1.6 4.8 2.8 13.9 2.8 13.9s1.5-8.8 3-13.6l7.8-25.4zM91.5 95.8V63.7c0-7.3-3.3-10.8-9.4-10.8-3 0-6.2.9-8.4 2.2v40.8H54.6V40l18.7-1.5-.5 9.1h.6c4-5.4 10.9-9.5 19-9.5 9.8 0 18.2 6 18.2 20.3v37.3H91.5zM20.4 97C12.3 97 5.7 95.6 0 92.9l1.7-13c6 2.9 12.7 4.3 18.4 4.3 4.1 0 6.8-1.4 6.8-3.9 0-7.1-25.7-5.4-25.7-24 0-11.9 10.9-18.2 24.6-18.2 6.8 0 13.9 1.8 18.4 3.5l-1.9 12.8c-4.8-1.8-11.3-3.6-16.7-3.6-3.3 0-6.1 1.2-6.1 3.3 0 7 26.3 5.6 26.3 23.8C45.9 90 35.1 97 20.4 97z" fill="#fff"/></svg>