<svg xmlns="http://www.w3.org/2000/svg" viewBox="0 0 30 30"><path d="M9.43 27.19c11.32 0 17.51-9.38 17.51-17.51 0-.27-.01-.53-.02-.8 1.2-.87 2.25-1.95 3.07-3.19-1.1.49-2.29.82-3.53.97a6.193 6.193 0 002.71-3.4 12.1 12.1 0 01-3.91 1.49 6.12 6.12 0 00-4.49-1.94c-3.4 0-6.16 2.76-6.16 6.15 0 .48.05.95.16 1.4-5.11-.25-9.65-2.7-12.68-6.42a6.141 6.141 0 001.9 8.21 6.124 6.124 0 01-2.79-.77v.08c0 2.98 2.12 5.47 4.94 6.03-.52.14-1.06.22-1.62.22-.4 0-.78-.04-1.16-.11a6.152 6.152 0 005.75 4.27A12.354 12.354 0 010 24.41c2.72 1.76 5.96 2.78 9.43 2.78" fill="#fff"/></svg>